<?xml version="1.0" encoding="UTF-8"?>
<svg id="Ebene_1" xmlns="http://www.w3.org/2000/svg" version="1.1" viewBox="0 0 100 50">
  <!-- Generator: Adobe Illustrator 30.2.1, SVG Export Plug-In . SVG Version: 2.1.1 Build 1)  -->
  <defs>
    <style>
      .st0 {
        fill: #878787;
      }
    </style>
  </defs>
  <g>
    <path class="st0" d="M52.7,34.9c-.7-.6-1.5-1.1-2.2-1.9-.7-.7-1.2-1.6-1.1-2.5,0-.6.5-1.2,1-1,.3,0,.5.4.9.3.4,0,.5-.6.4-1-.2-.8-.8-1.5-1.6-1.8-.8-.3-1.7-.2-2.4,0-.9.4-1.7,1.3-1.5,2.2,0,.3.3.6.6.5.4,0,.5-.6.9-.6s.8.4,1,.8c.3.8-.2,1.9-.8,2.4-.6.5-1.2.9-2,1.3-.6.4-1.2,1-1.6,1.8,0,0,0,.1,0,.2,0,.2.3.4.6.3.2,0,.4-.2.6-.4.8-.7,1.8-1.4,2.7-1.9s.4-.2.6-.2.6.2.8.4c.8.6,1.6,1.1,2.4,1.6.2.1.5.2.7,0,.4-.2.2-.6,0-.8Z"/>
    <path class="st0" d="M48.3,3.6c.5,0,.9-.4.9-.9s-.4-.9-.9-.9-.9.4-.9.9c0,.5.4.9.9.9Z"/>
    <path class="st0" d="M46.6,5.4c.3,0,.6-.2.6-.6s-.2-.6-.6-.6-.6.2-.6.6.2.6.6.6Z"/>
    <path class="st0" d="M45.4,7.1c.3,0,.5-.2.5-.5s-.2-.5-.5-.5-.5.2-.5.5c0,.3.2.5.5.5Z"/>
    <circle class="st0" cx="44.1" cy="7.9" r=".3"/>
    <circle class="st0" cx="50.1" cy="4.8" r=".6"/>
    <path class="st0" d="M51.3,7.1c.2,0,.5-.2.5-.5s-.2-.5-.5-.5-.5.2-.5.5.2.5.5.5Z"/>
    <circle class="st0" cx="52.6" cy="7.9" r=".3"/>
    <path class="st0" d="M54.7,14.8c3.9-4.1,5.3-6.3,5.3-6.3,0,0-8.4,4.3-11.7-4.4-2.7,6.3-6.5,6-11,5.2,2.9,3.1,5.2,5.6,5.2,5.6,0,0,4.7-3,12.1,0ZM48.3,5.4c1.6,5.2,6.5,4.8,8.7,4.6-6.2,1.8-8.7-2.9-8.7-2.9v4.4c-1.5.2-4.4.7-5,1.8,1.7-1,3.9-1,5-1v.7c-2.7-.4-5.3,1.1-5.3,1.1l-3.7-3.9c5.9,1,7.7-1.5,9-4.8Z"/>
    <g>
      <path class="st0" d="M52.3,21.9c2.8-.3,6.6-.9,10.4-1.6.1-.3.2-.5.3-.8.4-1.7-.5-3.6-2.1-4.1-.3,0-.7-.2-1-.2-1.2,0-3,.9-4,1.7-1-1-2.6-1.7-4.1-1.6-1,0-2.1.4-3.1.4-.8,0-1.6-.3-2.3-.5-1.6-.2-3.5.6-4.6,1.8-.3,0-.5-.3-.8-.5-.8-.8-1.9-1.5-3-1.3-1.2,0-2.1,1.1-2.5,2.3-.5,1.5-.2,3.1.6,4.4,4.8.4,10.8.6,16.4,0Z"/>
      <path class="st0" d="M52,26.5c-.3,0-.6,0-.9,0,.6.4,1,1.1,1.5,1.8.1.2.3.5.4.8,0,.2,0,.5,0,.7,0,1.6,1.6,2.8,2.1,4.3,0,.2,0,.5,0,.8,0,.7-.7,1.1-1.2,1.5-1.5.9-3.1,1.6-4.9,1.7-1.7.1-3.5-.2-4.9-1.2-.3-.2-.6-.5-.8-.9-.4-.8,0-1.8.3-2.6.4-.8,1-1.5,1.2-2.4.4-1.2-.3-2.4.7-3.3.1-.2.3-.3.5-.5-4.3.7-8.1,1.6-11.2,2.4,0,.6,0,1.2,0,1.8.2,3,1.4,6,3.7,7.8-.2-1.3,0-2.6.4-3.9.1,1.5.6,3,1.3,4.2,2.2,3.9,8.1,4.6,10.4,8.5.3-.9,1.6-2.2,2.3-2.8,1.9-1.7,3.8-3.2,5.3-5.2,1.6-2,2.7-4.3,2.6-6.7.3,1.1.6,2.2.6,3.4,1.5-3.2,1.6-7.4.1-10.7-3,0-6.2,0-9.6.4Z"/>
    </g>
  </g>
  <g>
    <path class="st0" d="M1.2,23c0-.2,0-.2-.2-.2h-.5v-.7h.8c.5,0,.7.2.7.7v2.7h.9c.3,0,.5,0,.7-.3l1.9-3.1h.9l-2,3.3c-.2.3-.4.4-.4.4h0s.2,0,.4.5l1.3,2.7c.1.2.3.3.6.3h.2v.7h-.4c-.6,0-.8,0-1.1-.6l-1.4-2.8c-.1-.3-.4-.3-.7-.3h-.8v3.7h-.8v-6.8Z"/>
    <path class="st0" d="M8.7,29.2h.7v-6.4h-.7v-.7h2.2v.7h-.7v6.4h.7v.7h-2.2v-.7Z"/>
    <path class="st0" d="M13.6,29.2h.5c.2,0,.2,0,.2-.2v-6.8h.7l4,5.5c.3.4.6,1,.6,1h0s0-.6,0-1v-4.9c0-.5.2-.7.7-.7h.8v.7h-.5c-.2,0-.2,0-.2.2v6.8h-.7l-4-5.5c-.3-.4-.6-1-.6-1h0s0,.6,0,1v4.9c0,.5-.2.7-.7.7h-.8v-.7Z"/>
    <path class="st0" d="M24.3,23c0-.2,0-.2-.2-.2h-.5v-.7h.8c.5,0,.7.2.7.7v2.7h.9c.3,0,.5,0,.7-.3l1.9-3.1h.9l-2,3.3c-.2.3-.4.4-.4.4h0s.2,0,.4.5l1.3,2.7c.1.2.3.3.6.3h.2v.7h-.4c-.6,0-.8,0-1.1-.6l-1.4-2.8c-.1-.3-.4-.3-.7-.3h-.8v3.7h-.8v-6.8Z"/>
  </g>
  <g>
    <path class="st0" d="M68,23.3h-.7v-1.2h3.4c1.4,0,2.4.7,2.4,2s-.5,1.4-.9,1.7h0c.8.3,1.3,1.1,1.3,1.9,0,1.6-1.2,2.3-2.7,2.3h-2c-.5,0-.8-.2-.8-.8v-5.9ZM70.7,25.3c.6,0,.9-.4.9-1s-.3-1-1-1h-1.2v2h1.2ZM69.7,28.7h1.1c.7,0,1.1-.5,1.1-1.1s-.4-1.1-1.1-1.1h-1.4v2c0,.2,0,.2.2.2Z"/>
    <path class="st0" d="M76.6,23.3h-.7v-1.2h4.7c.5,0,.8.2.8.8v1.2h-1.3v-.5c0-.2,0-.2-.2-.2h-1.8v2.1h2.5v1.2h-2.5v1.9c0,.2,0,.2.2.2h1.8c.2,0,.2,0,.2-.2v-.5h1.3v1.2c0,.5-.2.8-.8.8h-3.6c-.5,0-.8-.2-.8-.8v-5.9Z"/>
    <path class="st0" d="M83.7,28.7h.2c.2,0,.3,0,.3-.2l2.3-6.4h1.5l2.3,6.4c0,.2.2.2.3.2h.2v1.2h-.9c-.6,0-.8-.1-.9-.6l-.5-1.4h-2.6l-.5,1.4c-.2.5-.4.6-.9.6h-.9v-1.2ZM88.3,26.7l-.7-2c-.1-.4-.3-1.2-.3-1.2h0s-.2.7-.3,1.2l-.7,2h2Z"/>
    <path class="st0" d="M93.7,23.3h-.7v-1.2h3.5c1.4,0,2.4.9,2.4,2.4s-1,2-1.3,2.1h0s.2.1.4.4l.8,1.5c.1.2.3.3.6.3h.1v1.2h-.8c-.6,0-.8,0-1.1-.6l-1-2c-.2-.3-.3-.4-.7-.4h-.7v2.9h-1.4v-6.6ZM96.3,25.7c.7,0,1.2-.5,1.2-1.2s-.4-1.2-1.1-1.2h-1.2v2.5h1.1Z"/>
  </g>
</svg>